<svg width="133" height="163" viewBox="0 0 133 163" fill="none" xmlns="http://www.w3.org/2000/svg">
<path d="M11.0558 142.588C10.425 127.473 31.2079 117.053 31.2079 117.053C31.2079 117.053 22.4066 143.847 47 162.74C27.4518 162.74 11.6867 157.702 11.0558 142.588Z" fill="#083344"/>
<path d="M58.7759 153.924C49.5827 162.015 44.8049 161.644 37.3356 153.924C38.0307 159.257 39.4927 161.624 47.4252 162.74C59.6303 161.901 61.5676 159.788 58.7759 153.924Z" fill="#083344"/>
<path d="M11.0558 142.588C10.425 127.473 31.2079 117.053 31.2079 117.053C31.2079 117.053 22.4066 143.847 47 162.74C27.4518 162.74 11.6867 157.702 11.0558 142.588Z" fill="#10B981"/>
<path d="M126.75 19.1527C127.381 34.2672 106.598 44.687 106.598 44.687C106.598 44.687 114.593 18.9796 90 0.0864059C109.548 0.0864059 126.119 4.03817 126.75 19.1527Z" fill="#083344"/>
<path d="M80.3185 8.5C89.5117 0.408529 94.5473 1.35631 102.017 9.07636C101.321 3.74261 99.8594 1.3757 91.927 0.259545C79.7219 1.09861 77.5267 2.6358 80.3185 8.5Z" fill="#083344"/>
<path d="M126.75 19.1527C127.381 34.2672 106.598 44.687 106.598 44.687C106.598 44.687 114.593 18.9796 90 0.0864059C109.548 0.0864059 126.119 4.03817 126.75 19.1527Z" fill="#10B981"/>
<path d="M117.421 42.454C132.394 30.2184 131.294 9.07603 131.294 9.07603C131.294 9.07603 139.492 53.7899 119.944 66.3853C100.395 78.9808 34.8133 108.58 34.8133 108.58C14.725 116.791 4.89099 133.776 2.02225 147.626C-3.62809 125.405 2.99229 101.933 16.526 94.0953C30.0597 86.2574 102.449 54.6895 117.421 42.454Z" fill="#083344"/>
<path d="M90.8056 0.87143C82.1695 3.56517 77.8514 9.48322 77.8514 18.6256C77.5998 25.8089 77.3902 32.9922 77.2225 40.1755C77.1387 43.2774 77.0548 46.5017 76.971 49.8484C76.971 53.1952 76.9291 56.542 76.8452 59.8887C76.8452 63.2355 76.8033 66.5414 76.7195 69.8066C76.7195 73.0717 76.7195 76.1328 76.7195 78.9898C76.7195 90.0912 76.7195 101.07 76.7195 111.927C76.8033 122.783 77.1806 133.64 77.8514 144.497C78.1868 148.904 79.3606 152.619 81.3729 155.639C83.3852 158.577 86.5295 160.741 90.8056 162.128V162.74H45.4028V162.128C49.679 160.741 52.7394 158.455 54.584 155.271C56.4286 152.088 57.5186 148.333 57.854 144.007C58.4409 130.865 58.9021 118.661 59.2375 107.396C59.6567 96.1317 59.8663 85.1527 59.8663 74.4594C59.8663 64.9089 59.7825 55.44 59.6148 46.0527C59.5309 36.6655 58.9859 26.8292 57.9798 16.5441C57.5605 12.7075 56.3029 9.44241 54.2067 6.74867C52.1944 3.97331 49.2598 2.01423 45.4028 0.87143V0.259218H90.8056V0.87143Z" fill="#083344"/>
<path d="M37.8357 153.924C41.0281 158.279 47.7001 162.74 51 162.74H43.8306L37.8357 153.924Z" fill="#10B981"/>
<path d="M99.634 9.07636C96.1514 4.72071 86.5999 0.259218 83 0.259218L93.5 0L99.634 9.07636Z" fill="#10B981"/>
</svg>
