<svg width="256" height="256" viewBox="0 0 256 256" fill="none" xmlns="http://www.w3.org/2000/svg">
<rect width="256" height="256" rx="10" fill="#10B981"/>
<path d="M63.7184 197.843C62.9927 180.476 86.9008 168.502 86.9008 168.502C86.9008 168.502 76.7761 199.29 105.068 221C82.5799 221 64.4441 215.211 63.7184 197.843Z" fill="#ECFDF5"/>
<path d="M118.614 210.869C108.039 220.167 102.542 219.74 93.95 210.869C94.7496 216.998 96.4315 219.717 105.557 221C119.597 220.036 121.826 217.607 118.614 210.869Z" fill="#F8FAFC"/>
<path d="M63.7184 197.843C62.9927 180.476 86.9008 168.502 86.9008 168.502C86.9008 168.502 76.7761 199.29 105.068 221C82.5799 221 64.4441 215.211 63.7184 197.843Z" fill="#083344"/>
<path d="M196.81 56.0078C197.536 73.3754 173.628 85.3484 173.628 85.3484C173.628 85.3484 182.825 55.8089 154.534 34.0993C177.022 34.0993 196.084 38.6401 196.81 56.0078Z" fill="#ECFDF5"/>
<path d="M143.396 43.7671C153.972 34.4694 159.765 35.5585 168.357 44.4294C167.558 38.3005 165.876 35.5808 156.751 34.2982C142.71 35.2624 140.185 37.0287 143.396 43.7671Z" fill="#F8FAFC"/>
<path d="M196.81 56.0078C197.536 73.3754 173.628 85.3484 173.628 85.3484C173.628 85.3484 182.825 55.8089 154.534 34.0993C177.022 34.0993 196.084 38.6401 196.81 56.0078Z" fill="#083344"/>
<path d="M186.079 82.7825C203.303 68.7231 202.038 44.429 202.038 44.429C202.038 44.429 211.468 95.8082 188.98 110.281C166.492 124.754 91.0483 158.766 91.0483 158.766C67.9393 168.201 56.6265 187.718 53.3263 203.632C46.8263 178.099 54.4423 151.128 70.0111 142.122C85.58 133.116 168.854 96.842 186.079 82.7825Z" fill="#ECFDF5"/>
<path d="M155.461 35.0013C145.526 38.0966 140.558 44.8969 140.558 55.4021C140.269 63.6562 140.028 71.9103 139.835 80.1644C139.738 83.7287 139.642 87.4336 139.546 91.2793C139.546 95.1249 139.497 98.9706 139.401 102.816C139.401 106.662 139.353 110.461 139.256 114.213C139.256 117.964 139.256 121.482 139.256 124.765C139.256 137.521 139.256 150.137 139.256 162.612C139.353 175.087 139.787 187.561 140.558 200.036C140.944 205.101 142.295 209.369 144.609 212.84C146.924 216.216 150.541 218.702 155.461 220.296V221H103.23V220.296C108.15 218.702 111.67 216.076 113.792 212.418C115.914 208.76 117.168 204.445 117.554 199.474C118.229 184.372 118.76 170.35 119.145 157.406C119.628 144.462 119.869 131.846 119.869 119.559C119.869 108.585 119.772 97.7044 119.579 86.9177C119.483 76.1311 118.856 64.8286 117.699 53.0103C117.216 48.6018 115.769 44.85 113.358 41.7547C111.043 38.5656 107.667 36.3145 103.23 35.0013V34.2979H155.461V35.0013Z" fill="#ECFDF5"/>
<path d="M94.5253 210.869C98.1977 215.874 105.873 221 109.669 221H101.422L94.5253 210.869Z" fill="#083344"/>
<path d="M165.617 44.4294C161.61 39.4244 150.622 34.2979 146.481 34.2979L158.56 34L165.617 44.4294Z" fill="#083344"/>
</svg>
